<svg version="1.1" xmlns="http://www.w3.org/2000/svg" xmlns:xlink="http://www.w3.org/1999/xlink" width="20" height="20" viewBox="0,0,20,20"><g transform="translate(-310,-170)"><g stroke="none" stroke-miterlimit="10"><path d="M313.99918,171.99989l-2.49918,0.00011v-2h6v6h-2l0.00024,-2.61549c-2.1129,1.43996 -3.50024,3.86571 -3.50024,6.61549c0,4.4183 3.58172,8 8,8c4.4183,0 8,-3.5817 8,-8c0,-4.41828 -3.5817,-8 -8,-8v-2c5.5228,0 10,4.47715 10,10c0,5.5228 -4.4772,10 -10,10c-5.52285,0 -10,-4.4772 -10,-10c0,-3.27127 1.57075,-6.17566 3.99918,-8.00011z" fill="#ffffff" stroke-width="1"/><path d="M310.3125,180c0,-5.35026 4.33724,-9.6875 9.6875,-9.6875c5.35026,0 9.6875,4.33724 9.6875,9.6875c0,5.35026 -4.33724,9.6875 -9.6875,9.6875c-5.35026,0 -9.6875,-4.33724 -9.6875,-9.6875z" fill-opacity="0.00392" fill="#ffffff" stroke-width="0"/></g></g></svg>